<?xml version="1.0" encoding="UTF-8"?>
<svg xmlns="http://www.w3.org/2000/svg" xmlns:xlink="http://www.w3.org/1999/xlink" x="0px" y="0px" width="24px" height="24px" viewBox="0 0 24 24"> <path fill="white" d="M12,0C5.4,0,0,5.4,0,12s5.2,12,11.9,12c0.1,0,0.1,0,0.1,0v-9h-2v-3h2V9.9c0-0.5,0.2-1.1,0.4-1.5
c0.2-0.5,0.6-0.9,0.9-1.3c0.4-0.4,0.8-0.6,1.3-0.8c0.5-0.2,1-0.3,1.6-0.3H19v3h-2.8c-0.1,0-0.1,0.2-0.2,0.2c-0.1,0-0.1,0.2-0.2,0.2
c-0.1,0.1,0.1,0.2,0.1,0.2c0,0.1,0.1,0.2,0.1,0.3V12h3l-0.6,3H16v8.4c5-1.5,8.2-6.1,8.2-11.4C24.2,5.4,18.6,0,12,0z"></path> </svg>
