<?xml version="1.0" encoding="UTF-8"?>
<svg xmlns="http://www.w3.org/2000/svg" xmlns:xlink="http://www.w3.org/1999/xlink" x="0px" y="0px" width="24px" height="24px" viewBox="0 0 24 24">
    <path fill="white" d="M21,0H3C1.3,0,0,1.3,0,3v18c0,1.6,1.3,3,3,3h18c1.7,0,3-1.4,3-3V3C24,1.3,22.7,0,21,0z M7.4,10h9.2
c0.3,0.6,0.4,1.3,0.4,2c0,2.8-2.2,5-5,5s-5-2.2-5-5C7,11.3,7.2,10.6,7.4,10z M21,20c0,0.6-0.4,1-1,1H4c-0.6,0-1-0.4-1-1V10h2.3
C5.1,10.6,5,11.3,5,12c0,3.9,3.1,7,7,7s7-3.1,7-7c0-0.7-0.1-1.4-0.3-2H21V20z M21,5c0,0.5-0.5,1-1,1h-1c-0.5,0-1-0.5-1-1V4
c0-0.5,0.5-1,1-1h1c0.5,0,1,0.5,1,1V5z"></path>
</svg>
